<?xml version="1.0" encoding="utf-8"?>
<!-- Generator: Adobe Illustrator 27.0.1, SVG Export Plug-In . SVG Version: 6.00 Build 0)  -->
<svg version="1.1" id="Capa_1" xmlns="http://www.w3.org/2000/svg" xmlns:xlink="http://www.w3.org/1999/xlink" x="0px" y="0px"
	 viewBox="0 0 512 512" style="enable-background:new 0 0 512 512;" xml:space="preserve">
<style type="text/css">
	.st0{fill:#14103E;}
</style>
<g>
	<path class="st0" d="M0,255.7c-0.2,54.7,44,99.2,98.7,99.4c25.2,0.1,49.5-9.4,67.9-26.6l147.6,66.6c-1,5.5-1.6,11.1-1.7,16.7
		c-0.2,55.1,44.3,99.9,99.4,100.1c55.1,0.2,99.9-44.3,100.1-99.4c0.2-55.1-44.3-99.9-99.4-100.1c-32.9-0.1-63.8,16-82.4,43.1
		L191.5,293c9.9-23.8,9.9-50.5,0.1-74.3l138.5-62.9c31.2,45.1,93,56.4,138.1,25.2s56.4-93,25.2-138.1s-93-56.4-138.1-25.2
		c-26.9,18.6-42.9,49.2-42.8,81.8c0.1,5.6,0.7,11.2,1.7,16.7l-147.2,66.9c-39.9-37.5-102.6-35.5-140,4.4C9.5,206-0.1,230.4,0,255.7z
		"/>
</g>
</svg>
