<?xml version="1.0" encoding="utf-8"?>
<!-- Generator: Adobe Illustrator 27.0.1, SVG Export Plug-In . SVG Version: 6.00 Build 0)  -->
<svg version="1.1" id="Filled" xmlns="http://www.w3.org/2000/svg" xmlns:xlink="http://www.w3.org/1999/xlink" x="0px" y="0px"
	 viewBox="0 0 512 512" style="enable-background:new 0 0 512 512;" xml:space="preserve">
<style type="text/css">
	.st0{fill:#14103E;}
</style>
<path class="st0" d="M378,64l-30.1-39.1C335.7,9.3,317,0.1,297.2,0h-82.4c-19.8,0.1-38.5,9.3-50.7,24.9L134,64H378z"/>
<circle class="st0" cx="256" cy="298.7" r="85.3"/>
<path class="st0" d="M405.3,106.7H106.7C47.8,106.7,0.1,154.5,0,213.3v192C0.1,464.2,47.8,511.9,106.7,512h298.7
	c58.9-0.1,106.6-47.8,106.7-106.7v-192C511.9,154.5,464.2,106.7,405.3,106.7z M256,426.7c-70.7,0-128-57.3-128-128s57.3-128,128-128
	s128,57.3,128,128C383.9,369.3,326.7,426.6,256,426.7z"/>
</svg>
